PathFileType	4	(X/Y/Z)	TVC_58_BWA_04_walk_RCNL2025.trc
DataRate	CameraRate	NumFrames	NumMarkers	Units	OrigDataRate	OrigDataStartFrame	OrigNumFrames
100	100	9	27	mm	100	274	437
Frame#	Time	R_Shoulder			L_Shoulder			C7			J_Notch			R_Elbow			L_Elbow			R_Wrist			L_Wrist			R_Asis			L_Asis			R_Psis			L_Psis			Sacral			Thoracic			Sternum			R_Thigh_Lateral			R_Knee_Lateral			R_Shank_Lateral			R_Ankle_Lateral			R_Heel			R_Toe			L_Thigh_Lateral			L_Knee_Lateral			L_Shank_Lateral			L_Ankle_Lateral			L_Heel			L_Toe		
		X1	Y1	Z1	X2	Y2	Z2	X3	Y3	Z3	X4	Y4	Z4	X5	Y5	Z5	X6	Y6	Z6	X7	Y7	Z7	X8	Y8	Z8	X9	Y9	Z9	X10	Y10	Z10	X11	Y11	Z11	X12	Y12	Z12	X13	Y13	Z13	X14	Y14	Z14	X15	Y15	Z15	X16	Y16	Z16	X17	Y17	Z17	X18	Y18	Z18	X19	Y19	Z19	X20	Y20	Z20	X21	Y21	Z21	X22	Y22	Z22	X23	Y23	Z23	X24	Y24	Z24	X25	Y25	Z25	X26	Y26	Z26	X27	Y27	Z27
274	2.73000000	670.287231	1329.351196	-22.598999	659.415039	1330.075806	-379.468262	602.205566	1397.078979	-208.427567	750.465332	1305.658936	-202.810410	698.916382	1009.853699	50.601852	600.397705	1010.048279	-435.713684	863.039948	817.839996	58.752710	655.642975	776.185699	-501.160309	800.167358	894.566101	-60.259216	785.927246	904.088196	-367.922760	568.196960	925.185608	-133.630157	557.773804	916.597473	-246.164291	562.985382	920.891541	-189.897224	563.138733	1089.753296	-196.955795	861.921021	1079.531372	-211.830551	757.563538	670.088135	20.844864	694.307556	442.518524	-54.054623	557.647339	284.239899	-2.383932	415.448730	127.208031	-86.687233	367.255737	150.386749	-140.554886	506.714417	44.690594	-128.701431	743.290344	654.268677	-436.892883	864.642334	473.358795	-337.960876	852.291260	281.801697	-390.022980	813.489990	61.662762	-301.674286	768.939087	55.128651	-250.762970	951.590942	44.540302	-274.823975
275	2.74000000	677.372498	1331.193115	-24.291321	666.600708	1331.700317	-381.134369	609.377563	1398.351196	-210.202820	757.787964	1307.451172	-204.468582	703.553223	1011.417175	48.926674	608.351746	1011.545776	-437.622833	865.850769	817.781769	58.102579	666.247894	778.316742	-503.559143	807.825012	896.198730	-62.210335	793.856262	906.377014	-369.641113	576.411133	926.158020	-135.126541	566.014038	918.492432	-248.117035	571.212585	922.325226	-191.621788	571.014954	1090.930664	-198.555817	869.573303	1081.674683	-213.257233	767.244751	671.889587	20.101761	709.946228	442.783569	-53.381126	567.640869	289.118195	-1.940481	423.704987	134.260910	-86.707024	377.640747	159.807068	-141.314880	509.325623	44.913383	-128.771332	749.505920	655.895264	-438.636200	867.028503	472.933319	-339.048187	850.810303	281.427277	-391.474976	813.580444	61.586128	-301.906342	768.939026	55.188034	-250.938934	951.583130	44.630318	-274.726990
276	2.75000000	684.431641	1333.008667	-25.938639	673.828125	1333.336304	-382.760132	616.571411	1399.657837	-211.932327	765.110291	1309.223145	-206.076202	708.148743	1012.975220	47.266903	616.205688	1013.029541	-439.428955	868.402466	817.623627	57.605776	677.017761	780.479004	-505.808578	815.204773	897.786804	-63.923958	801.719360	908.495789	-371.176086	584.278564	927.117249	-136.879059	574.126587	920.432800	-250.273026	579.202576	923.775024	-193.576042	578.796021	1092.168579	-200.166626	877.193359	1083.642822	-214.589905	776.975281	673.775391	19.509037	725.927795	443.150818	-52.639526	578.672852	293.919708	-1.378721	432.979492	141.484894	-86.681671	389.034698	169.330887	-141.889481	512.368286	45.448299	-128.837021	755.545288	657.458435	-440.260498	869.099487	472.514343	-340.020844	850.566162	281.574585	-392.541870	813.648376	61.507446	-302.066864	768.916077	55.235153	-251.059265	951.539856	44.689682	-274.593231
277	2.76000000	691.467224	1334.759277	-27.535522	681.112976	1334.945068	-384.344055	623.791443	1400.975098	-213.615112	772.435120	1310.939575	-207.626816	712.719666	1014.491882	45.631817	623.989807	1014.460815	-441.142334	870.719574	817.351990	57.261913	687.931488	782.630707	-507.908493	822.321106	899.284668	-65.390114	809.526855	910.376648	-372.487701	591.794312	928.038635	-138.864975	582.093933	922.378723	-252.598953	586.944122	925.208679	-195.731964	586.473633	1093.445068	-201.786789	884.785828	1085.382935	-215.824921	786.743164	675.708618	19.036148	742.164490	443.648315	-51.914803	590.961914	298.393036	-0.767427	443.261566	148.791702	-86.635353	401.355347	178.796417	-142.293655	516.038513	46.398094	-128.833099	761.406372	658.915955	-441.752411	870.974548	472.106750	-340.882080	851.458923	281.975403	-393.238464	813.707275	61.431374	-302.162598	768.893433	55.286091	-251.131409	951.483032	44.698479	-274.434570
278	2.77000000	698.483093	1336.412598	-29.077356	688.467773	1336.493774	-385.884583	631.041138	1402.282959	-215.250336	779.764282	1312.569458	-209.114777	717.280701	1015.936951	44.030369	631.736084	1015.807800	-442.774506	872.825226	816.957428	57.068001	698.966919	784.736115	-509.860184	829.193054	900.658752	-66.606087	817.286987	911.962952	-373.549042	598.965759	928.905273	-141.050034	589.898071	924.293213	-255.046875	594.431915	926.599243	-198.048454	594.041199	1094.740356	-203.413727	892.350342	1086.854004	-216.961624	796.523071	677.661133	18.655033	758.581177	444.308075	-51.278275	604.640442	302.333649	-0.180122	454.522095	156.087326	-86.600716	414.507751	188.028549	-142.575974	520.590088	47.852074	-128.674057	767.090759	660.237427	-443.108124	872.759094	471.712280	-341.642059	853.165161	282.350403	-393.634155	813.767334	61.362186	-302.202057	768.888306	55.351383	-251.163284	951.428772	44.652912	-274.262512
279	2.78000000	705.483459	1337.943237	-30.560461	695.901855	1337.955933	-387.380035	638.323303	1403.564209	-216.837296	787.098877	1314.087769	-210.535294	721.844299	1017.286987	42.470772	639.477051	1017.046875	-444.337952	874.740997	816.435059	57.018473	710.101532	786.766357	-511.665573	835.842712	901.889099	-67.575661	825.004578	913.212463	-374.349060	605.812256	929.708679	-143.390808	597.521606	926.143921	-257.557800	601.666931	927.926300	-200.474304	601.494385	1096.037354	-205.044006	899.882080	1088.029297	-218.001648	806.278381	679.613159	18.342081	775.119141	445.163605	-50.781555	619.726562	305.627258	0.312010	466.718597	163.271286	-86.615685	428.392029	196.844543	-142.812897	526.319519	49.872387	-128.264709	772.612061	661.408691	-444.334839	874.537476	471.329956	-342.315979	855.346802	282.449738	-393.800934	813.834900	61.302959	-302.194763	768.910400	55.436035	-251.162933	951.387329	44.560471	-274.087799
280	2.79000000	712.472473	1339.333618	-31.982174	703.420776	1339.312622	-388.828491	645.639587	1404.806030	-218.375549	794.439026	1315.475830	-211.884506	726.419800	1018.526001	40.960140	647.244629	1018.163025	-445.845520	876.486267	815.784851	57.105316	721.312592	788.699768	-513.326889	842.293579	902.969971	-68.308609	832.679810	914.100220	-374.894226	612.363220	930.447815	-145.837494	604.948853	927.904175	-260.066376	608.656036	929.175995	-202.951935	608.831177	1097.322144	-206.673615	907.372437	1088.897705	-218.948227	815.966492	681.551514	18.079050	791.737732	446.246368	-50.455452	636.114014	308.274323	0.643121	479.799835	170.235397	-86.718704	442.910217	205.060547	-143.096802	533.542053	52.483429	-127.515594	778.000610	662.433289	-445.449860	876.369629	470.957001	-342.921875	857.742188	282.108307	-393.785248	813.913086	61.255226	-302.150513	768.961609	55.540398	-251.138290	951.363525	44.435188	-273.919800
281	2.80000000	719.453430	1340.573975	-33.340881	711.026672	1340.552246	-390.228058	652.990479	1405.998901	-219.864914	801.783875	1316.721436	-213.159439	731.013428	1019.645203	39.504238	655.068909	1019.149719	-447.309937	878.078552	815.011902	57.318241	732.577698	790.521759	-514.845795	848.569397	903.908997	-68.820137	840.307617	914.620483	-375.208466	618.656311	931.128479	-148.336609	612.167480	929.554260	-262.506592	615.411896	930.341370	-205.421600	616.052124	1098.583740	-208.298340	914.810181	1089.464355	-219.805664	825.543762	683.467529	17.852791	808.412781	447.581818	-50.313328	653.582397	310.386047	0.755076	493.709778	176.863434	-86.943253	457.972290	212.499054	-143.519272	542.560791	55.664974	-126.361275	783.302734	663.330139	-446.477325	878.290405	470.589691	-343.478149	860.156372	281.292633	-393.619629	814.002136	61.219078	-302.078918	769.037231	55.661640	-251.097214	951.357971	44.293610	-273.766144
282	2.81000000	726.428101	1341.662354	-34.636009	718.718445	1341.670288	-391.576691	660.375549	1407.136719	-221.305466	809.131775	1317.818970	-214.357986	735.628052	1020.642883	38.107269	662.976929	1020.008545	-448.743408	879.533508	814.125916	57.644964	743.875092	792.224426	-516.223480	854.694031	904.725403	-69.130417	847.876892	914.787170	-375.331085	624.734985	931.761475	-150.833862	619.170105	931.081055	-264.816986	621.952545	931.421265	-207.825424	623.160461	1099.813843	-209.913895	922.182251	1089.750000	-220.579041	834.971130	685.355652	17.654358	825.130798	449.186218	-50.356693	671.826050	312.152496	0.603938	508.393219	183.031921	-87.312424	473.501587	218.997375	-144.152802	553.628906	59.347958	-124.778526	788.575500	664.127686	-447.443726	880.312073	470.224182	-344.001343	862.422180	280.114868	-393.353943	814.100220	61.193493	-301.988861	769.128479	55.795368	-251.047043	951.368408	44.151730	-273.632599
